<svg xmlns="http://www.w3.org/2000/svg" version="1.1" xmlns:xlink="http://www.w3.org/1999/xlink" xmlns:svgjs="http://svgjs.dev/svgjs" width="1000" height="1000" viewBox="0 0 1000 1000"><rect width="1000" height="1000" fill="#000000"></rect><g transform="matrix(0.7,0,0,0.7,149.57575757575756,307.7039474349354)"><svg viewBox="0 0 396 218" data-background-color="#ffffff" preserveAspectRatio="xMidYMid meet" height="550" width="1000" xmlns="http://www.w3.org/2000/svg" xmlns:xlink="http://www.w3.org/1999/xlink"><g id="tight-bounds" transform="matrix(1,0,0,1,0.2400000000000091,-0.11548096224379378)"><svg viewBox="0 0 395.52 218.23096288644103" height="218.23096288644103" width="395.52"><g><svg viewBox="0 0 395.52 218.23096288644103" height="218.23096288644103" width="395.52"><g transform="matrix(1,0,0,1,0,144.3412484865642)"><svg viewBox="0 0 395.52 73.88971439987684" height="73.88971439987684" width="395.52"><g id="textblocktransform"><svg viewBox="0 0 395.52 73.88971439987684" height="73.88971439987684" width="395.52" id="textblock"><g><svg viewBox="0 0 395.52 73.88971439987684" height="73.88971439987684" width="395.52"><g transform="matrix(1,0,0,1,0,0)"><svg width="395.52" viewBox="1.13752019405365 -38.074859619140625 269.59869384765625 50.36555480957031" height="73.88971439987684" data-palette-color="#8324b0"><path d="M18.905 8.665v0c-2.203 0.408-4.353 0.366-6.451-0.127v0c-1.563 0.934-3.308 1.579-5.235 1.937-1.921 0.356-2.95 0.53-3.086 0.521v0c-0.42-2.268-0.426-7.345-0.016-15.232 0.411-7.88 0.521-12.338 0.329-13.374-0.192-1.036-0.555-1.931-1.088-2.687-0.532-0.749-1.034-1.3-1.506-1.653v0l-0.652-0.5-0.062-1.158c0.908-0.406 2.773-1.022 5.596-1.851 2.823-0.828 5.29-1.438 7.401-1.829v0c5.061-0.938 9.01-0.592 11.847 1.039 2.839 1.637 4.685 4.756 5.538 9.358v0c0.664 3.586 0.66 7.183-0.014 10.793-0.679 3.618-2.118 6.827-4.318 9.628-2.199 2.808-4.96 4.519-8.283 5.135zM15.472-23.915v0c-0.59 0.109-1.223 0.278-1.9 0.505v0c0.255 1.926 0.228 6.463-0.081 13.613-0.309 7.149-0.409 12.026-0.3 14.629v0c0.651 0.184 1.386 0.201 2.206 0.049v0c1.744-0.323 3.151-1.401 4.222-3.233 1.071-1.832 1.751-3.999 2.039-6.501v0c0.519-5.066 0.416-9.556-0.309-13.469v0c-0.439-2.366-1.098-3.97-1.98-4.81-0.888-0.839-2.187-1.1-3.897-0.783zM52.477-9.606l-16.442 2.355c-0.275-1.92-0.369-3.395-0.281-4.425v0l16.442-2.355c0.261 1.821 0.354 3.296 0.281 4.425zM68.32 12.228v0c-1.897 0.191-3.527-0.057-4.89-0.743-1.362-0.687-2.124-1.83-2.285-3.429v0c-0.094-0.929 0.04-1.766 0.401-2.512 0.361-0.74 0.755-1.316 1.182-1.728 0.434-0.412 0.827-0.773 1.178-1.083 0.358-0.304 0.839-0.621 1.442-0.949 0.61-0.329 1.106-0.591 1.489-0.784 0.383-0.186 0.907-0.413 1.569-0.68 0.663-0.268 1.14-0.46 1.43-0.577 0.29-0.11 0.744-0.263 1.361-0.458 0.623-0.203 0.966-0.325 1.028-0.365v0c0.116-0.514 0.223-1.111 0.322-1.791v0c-1.356 0.572-2.648 0.92-3.874 1.043v0c-2.965 0.299-5.617-0.553-7.957-2.555-2.332-1.996-3.706-5.057-4.121-9.183v0c-0.339-3.363 0.057-6.622 1.186-9.779 1.123-3.155 2.976-5.848 5.558-8.077 2.583-2.223 5.524-3.501 8.821-3.834 3.297-0.332 6.092 0.15 8.387 1.447 2.301 1.296 3.569 3.108 3.804 5.436v0c0.108 1.068-0.058 2.247-0.498 3.538v0c-0.464 0.114-1.061 0.207-1.791 0.281v0c-3.131 0.315-5.588-0.06-7.37-1.127v0l-0.548-5.443c-0.581-0.377-1.286-0.524-2.115-0.44v0c-1.997 0.201-3.562 1.853-4.697 4.956-1.134 3.109-1.488 6.777-1.063 11.002v0c0.587 5.824 2.396 8.583 5.427 8.277v0c1.731-0.174 3.289-1.239 4.674-3.194 1.378-1.955 2.347-4.337 2.908-7.148v0l3.343 0.166c0.004 9.347-1.25 16.525-3.76 21.535-2.504 5.01-6.018 7.742-10.541 8.198zM65.204 6.843v0c0.033 0.332 0.195 0.61 0.486 0.836 0.29 0.219 0.687 0.303 1.192 0.252v0c1.897-0.191 3.423-1.873 4.577-5.044v0l0.035-0.155c-2.162 0.553-3.769 1.194-4.822 1.923-1.052 0.729-1.542 1.459-1.468 2.188zM114.921-33.528c1.035 1.302 1.828 2.693 2.378 4.173 0.543 1.474 0.869 3.246 0.976 5.316 0.107 2.077-0.133 4.403-0.721 6.977-0.588 2.574-1.531 5.059-2.828 7.456-1.298 2.397-3.164 4.393-5.599 5.987-2.427 1.601-5.245 2.484-8.454 2.65v0c-3.908 0.202-7.049-0.957-9.422-3.478-2.374-2.527-3.664-5.795-3.872-9.803-0.207-4.008 0.362-7.712 1.709-11.113 1.346-3.401 3.377-6.219 6.091-8.456 2.715-2.23 5.81-3.435 9.286-3.614v0c2.337-0.121 4.405 0.173 6.204 0.88 1.792 0.708 3.21 1.717 4.252 3.025zM99.541-5.426v0c0.623 0.435 1.511 0.623 2.663 0.563 1.152-0.06 2.202-0.791 3.151-2.196 0.955-1.411 1.66-3.2 2.115-5.366v0c0.848-4.263 1.155-8.648 0.922-13.155v0c-0.283-5.479-1.76-8.15-4.429-8.012v0c-1.272 0.066-2.386 0.718-3.344 1.955-0.957 1.238-1.686 2.824-2.187 4.759v0c-1.038 3.939-1.442 8.132-1.212 12.58v0c0.257 4.973 1.031 7.931 2.321 8.872zM149.814-33.631c0.966 1.354 1.686 2.784 2.159 4.29 0.466 1.5 0.699 3.287 0.698 5.361-0.001 2.08-0.362 4.39-1.082 6.929-0.721 2.54-1.792 4.973-3.213 7.299-1.421 2.326-3.388 4.222-5.902 5.688-2.507 1.472-5.367 2.208-8.581 2.207v0c-3.913-0.001-6.99-1.322-9.228-3.963-2.239-2.647-3.358-5.978-3.357-9.991 0.001-4.013 0.763-7.683 2.284-11.009 1.521-3.326 3.695-6.035 6.523-8.128 2.827-2.086 5.981-3.128 9.461-3.127v0c2.34 0.001 4.39 0.402 6.15 1.202 1.753 0.801 3.116 1.881 4.088 3.242zM132.995-6.367v0c0.6 0.467 1.476 0.701 2.63 0.701 1.153 0 2.24-0.676 3.26-2.029 1.027-1.36 1.824-3.109 2.392-5.249v0c1.068-4.213 1.603-8.576 1.605-13.09v0c0.002-5.487-1.334-8.23-4.007-8.231v0c-1.273 0-2.42 0.592-3.441 1.779-1.02 1.186-1.831 2.733-2.432 4.639v0c-1.241 3.88-1.863 8.046-1.864 12.499v0c-0.002 4.98 0.617 7.974 1.857 8.981zM163.093 9.407v0c-1.904-0.096-3.478-0.587-4.721-1.47-1.244-0.884-1.825-2.128-1.744-3.733v0c0.047-0.932 0.305-1.74 0.774-2.424 0.468-0.677 0.945-1.187 1.429-1.53 0.491-0.342 0.934-0.64 1.327-0.894 0.4-0.247 0.922-0.487 1.569-0.722 0.653-0.234 1.183-0.417 1.589-0.55 0.407-0.126 0.958-0.272 1.655-0.437 0.696-0.165 1.196-0.283 1.5-0.354 0.304-0.065 0.775-0.148 1.414-0.249 0.646-0.107 1.004-0.176 1.072-0.206v0c0.192-0.491 0.388-1.065 0.588-1.722v0c-1.427 0.362-2.756 0.511-3.988 0.448v0c-2.976-0.151-5.47-1.392-7.481-3.723-2.005-2.324-2.903-5.557-2.693-9.699v0c0.171-3.376 1.052-6.538 2.643-9.488 1.585-2.95 3.821-5.333 6.711-7.15 2.889-1.809 5.987-2.63 9.296-2.462 3.309 0.168 6 1.065 8.074 2.692 2.08 1.627 3.061 3.61 2.943 5.946v0c-0.054 1.072-0.396 2.213-1.024 3.423v0c-0.476 0.043-1.08 0.045-1.813 0.008v0c-3.143-0.159-5.515-0.9-7.117-2.223v0l0.277-5.463c-0.517-0.46-1.192-0.711-2.024-0.753v0c-2.004-0.102-3.8 1.296-5.389 4.192-1.589 2.903-2.491 6.476-2.706 10.717v0c-0.296 5.846 1.077 8.846 4.12 9v0c1.738 0.088 3.438-0.73 5.101-2.455 1.656-1.725 2.973-3.935 3.95-6.629v0l3.281 0.667c-1.403 9.241-3.722 16.149-6.958 20.725-3.229 4.576-7.114 6.749-11.655 6.518zM160.823 3.615v0c-0.017 0.333 0.101 0.633 0.355 0.899 0.254 0.26 0.634 0.403 1.14 0.428v0c1.904 0.096 3.666-1.336 5.284-4.298v0l0.058-0.147c-2.221 0.221-3.906 0.613-5.056 1.176-1.15 0.563-1.743 1.21-1.781 1.942zM201.451 2.203v0c-1.4-0.135-3.37-1.061-5.911-2.78-2.54-1.725-4.02-2.658-4.442-2.799v0c-2.25 2.435-4.242 3.57-5.974 3.403v0c-0.465-0.045-1.102-0.759-1.913-2.143-0.804-1.39-1.151-2.653-1.042-3.787v0c0.048-0.498 0.622-1.072 1.723-1.723 1.107-0.65 2.342-1.06 3.705-1.23v0c1.098-2.011 2.293-5.104 3.586-9.279 1.293-4.182 2.096-7.885 2.406-11.111v0c0.052-0.538-0.066-1.155-0.354-1.852-0.281-0.697-0.572-1.261-0.872-1.692v0l-0.489-0.66 0.245-0.981c1.911-0.653 5.747-0.702 11.507-0.147v0c0.458 0.881 0.59 2.321 0.398 4.318-0.192 1.997-1.409 5.376-3.648 10.137-2.239 4.754-4.416 8.861-6.531 12.32v0c3.248 1.19 6.384 1.931 9.41 2.223v0c0.703 0.068 1.294-0.046 1.771-0.342 0.483-0.288 1.041-0.938 1.675-1.949v0l2.656 1.211c-0.836 3.114-1.871 5.419-3.107 6.914-1.235 1.488-2.835 2.138-4.799 1.949zM221.285 4.086v0c-4.174-0.573-7.207-2.355-9.097-5.347v0c-1.022-1.627-1.389-3.485-1.103-5.572v0c0.387-2.82 1.698-4.995 3.934-6.525 2.236-1.53 4.731-2.261 7.488-2.192v0c-4.02-1.696-5.778-4.383-5.273-8.062v0c0.392-2.853 1.927-4.947 4.607-6.282 2.686-1.334 5.595-1.786 8.726-1.356 3.131 0.43 5.651 1.432 7.561 3.006 1.909 1.581 2.719 3.432 2.428 5.552v0c-0.169 1.228-0.658 2.342-1.468 3.341v0l-0.422 0.498c-1.361-0.187-2.792-0.592-4.294-1.216-1.502-0.63-2.603-1.33-3.306-2.099v0l1.192-5.004c-0.464-0.299-0.943-0.483-1.439-0.551v0c-1.03-0.141-1.894 0.295-2.592 1.31-0.699 1.021-1.148 2.262-1.348 3.721-0.199 1.453-0.2 2.634-0.002 3.543 0.199 0.902 0.608 1.624 1.227 2.166 0.612 0.542 1.163 0.937 1.654 1.186 0.49 0.256 1.183 0.546 2.081 0.872v0l-0.792 2.828c-2.285-0.314-4.478 0.045-6.578 1.076-2.1 1.031-3.3 2.639-3.6 4.825v0c-0.214 1.559 0.129 2.76 1.03 3.603 0.893 0.849 2.026 1.368 3.4 1.557 1.38 0.189 2.878 0.042 4.492-0.443 1.621-0.484 3.053-1.183 4.295-2.095v0l1.931 2.546c-1.695 1.759-3.897 3.146-6.607 4.16-2.702 1.009-5.411 1.327-8.125 0.954zM246.392 6.459v0c-2.098 0.495-4.543 0.486-7.336-0.028v0c-0.957-0.176-1.798-0.416-2.521-0.718v0c0.399-2.17 2.228-6.894 5.485-14.171 3.263-7.27 5.076-11.891 5.438-13.865v0c0.146-0.793-0.254-1.955-1.199-3.484v0l-0.421-0.749 0.346-1.055c4.616 0.036 9.655 0.556 15.117 1.562v0c3.291 0.606 5.775 1.717 7.45 3.333 1.675 1.616 2.29 3.634 1.845 6.053-0.444 2.413-1.508 4.495-3.193 6.246-1.678 1.752-3.839 2.961-6.483 3.626v0c0.41 3.885 0.917 6.954 1.519 9.207 0.609 2.254 1.225 3.438 1.847 3.553v0c0.531 0.098 1.39 0.052 2.578-0.136v0l0.626-0.088 0.7 2.885c-3.303 1.67-6.558 2.21-9.765 1.619-3.206-0.59-5.008-2.589-5.404-5.997v0c-0.332-2.983-0.377-6.611-0.133-10.883v0l-1.73-0.319c-2.752 6.631-4.34 11.101-4.766 13.409zM253.974-10.875v0c1.049 0.193 2.021 0.033 2.915-0.48 0.894-0.513 1.635-1.262 2.223-2.245v0c1.109-1.938 1.842-3.877 2.199-5.818 0.357-1.941-0.336-3.072-2.08-3.393v0c-0.531-0.098-1.068-0.146-1.611-0.143v0c-0.22 1.01-1.777 4.94-4.67 11.789v0c0.217 0.108 0.559 0.205 1.024 0.29z" opacity="1" transform="matrix(1,0,0,1,0,0)" fill="#ffffff" class="undefined-text-0" data-fill-palette-color="primary" id="text-0"></path></svg></g></svg></g></svg></g></svg></g><g transform="matrix(1,0,0,1,137.1418864274733,0)"><svg viewBox="0 0 121.23622714505338 119.55355789900071" height="119.55355789900071" width="121.23622714505338"><g><svg xmlns="http://www.w3.org/2000/svg" xmlns:xlink="http://www.w3.org/1999/xlink" version="1.1" x="0" y="0" viewBox="0 0.6930007934570312 100.00041198730469 98.61248016357422" enable-background="new 0 0 100 100" xml:space="preserve" width="121.23622714505338" height="119.55355789900071" class="icon-icon-0" data-fill-palette-color="accent" id="icon-0"><g fill="#8324b0" data-fill-palette-color="accent"><path d="M97.926 87.61c-1.719-2.011-2.979-3.625-3.992-6.511-2.095-7.791 0.355-16.72 0.355-16.72l-0.014 0.009c1.607-4.813 2.491-9.957 2.491-15.311 0-26.723-21.665-48.384-48.383-48.384C21.665 0.694 0 22.355 0 49.078c0 20.68 12.981 38.32 31.232 45.243l-0.009 0.001c0 0 0.114 0.046 0.322 0.122 2.392 0.889 4.874 1.591 7.428 2.094 9.888 2.231 28.944 4.761 55.476 0.315C101.04 95.723 101.166 91.405 97.926 87.61zM65.045 65.791c-0.606 0.646-1.427 0.972-2.249 0.972-0.758 0-1.517-0.275-2.113-0.837L54.2 59.835c-1.87 0.973-3.989 1.531-6.24 1.531-7.487 0-13.578-6.091-13.578-13.578 0-7.487 6.091-13.578 13.578-13.578 7.488 0 13.579 6.091 13.579 13.578 0 2.993-0.984 5.751-2.631 7.998l6.003 5.642C66.152 62.596 66.213 64.55 65.045 65.791z" fill="#ffffff" data-fill-palette-color="accent"></path><path d="M47.96 39.613c-4.507 0-8.174 3.667-8.174 8.175 0 4.506 3.667 8.174 8.174 8.174 4.507 0 8.175-3.668 8.175-8.174C56.136 43.28 52.468 39.613 47.96 39.613z" fill="#ffffff" data-fill-palette-color="accent"></path></g></svg></g></svg></g><g></g></svg></g><defs></defs></svg><rect width="395.52" height="218.23096288644103" fill="none" stroke="none" visibility="hidden"></rect></g></svg></g></svg>